<?xml version="1.0" encoding="utf-8"?>
<!-- Generator: Adobe Illustrator 27.4.1, SVG Export Plug-In . SVG Version: 6.00 Build 0)  -->
<svg version="1.1" id="Capa_1" xmlns="http://www.w3.org/2000/svg" xmlns:xlink="http://www.w3.org/1999/xlink" x="0px" y="0px"
	 viewBox="0 0 300 186" style="enable-background:new 0 0 300 186;" xml:space="preserve">
<style type="text/css">
	.st0{fill:#6D3F90;}
	.st1{fill:#00A2C5;}
	.st2{fill:#F7CF0D;}
	.st3{fill:#AEC90B;}
	.st4{fill:#CE5392;}
	.st5{fill:#FFFFFF;}
	.st6{fill:none;stroke:#FFFFFF;stroke-width:3;stroke-miterlimit:10;}
</style>
<g>
	<path class="st0" d="M153.63,54.49v77.02c0,1.99-1.63,3.63-3.63,3.63l0,0c-1.99,0-3.63-1.63-3.63-3.63V54.49
		c0-1.99,1.63-3.63,3.63-3.63l0,0C151.99,50.87,153.63,52.5,153.63,54.49z"/>
	<path class="st1" d="M127.79,63.15v68.36c0,1.99-1.63,3.63-3.63,3.63h0c-1.99,0-3.63-1.63-3.63-3.63V63.15
		c0-1.99,1.63-3.63,3.63-3.63h0C126.16,59.53,127.79,61.16,127.79,63.15z"/>
	<path class="st2" d="M101.96,70.85v60.66c0,1.99-1.63,3.63-3.63,3.63h0c-1.99,0-3.63-1.63-3.63-3.63V70.85
		c0-1.99,1.63-3.63,3.63-3.63h0C100.33,67.22,101.96,68.85,101.96,70.85z"/>
	<path class="st3" d="M76.13,94.9v36.61c0,1.99-1.63,3.63-3.63,3.63h0c-1.99,0-3.63-1.63-3.63-3.63V94.9c0-1.99,1.63-3.63,3.63-3.63
		h0C74.49,91.28,76.13,92.91,76.13,94.9z"/>
	<path class="st2" d="M231.13,94.9v36.61c0,1.99-1.63,3.63-3.63,3.63h0c-1.99,0-3.63-1.63-3.63-3.63V94.9
		c0-1.99,1.63-3.63,3.63-3.63h0C229.49,91.28,231.13,92.91,231.13,94.9z"/>
	<path class="st4" d="M179.46,63.15v68.36c0,1.99-1.63,3.63-3.63,3.63h0c-1.99,0-3.63-1.63-3.63-3.63V63.15
		c0-1.99,1.63-3.63,3.63-3.63h0C177.83,59.53,179.46,61.16,179.46,63.15z"/>
	<path class="st3" d="M205.29,74.7v56.81c0,1.99-1.63,3.63-3.63,3.63l0,0c-1.99,0-3.63-1.63-3.63-3.63V74.7
		c0-1.99,1.63-3.63,3.63-3.63l0,0C203.66,71.07,205.29,72.7,205.29,74.7z"/>
</g>
<circle class="st6" cx="34" cy="30" r="17.5"/>
<g>
	<path class="st5" d="M33.49,36c-0.13,0-0.24-0.05-0.33-0.14s-0.14-0.2-0.14-0.33v-8.96l-2.58,1.98c-0.11,0.09-0.23,0.12-0.35,0.09
		c-0.12-0.02-0.22-0.09-0.31-0.21l-1.11-1.45c-0.08-0.11-0.1-0.23-0.08-0.37s0.09-0.24,0.22-0.31l4.33-3.35
		c0.08-0.05,0.15-0.08,0.22-0.1c0.07-0.02,0.15-0.03,0.23-0.03h2.35c0.14,0,0.25,0.04,0.34,0.13c0.09,0.09,0.13,0.2,0.13,0.34v12.23
		c0,0.13-0.04,0.24-0.13,0.33S36.08,36,35.94,36H33.49z"/>
</g>
</svg>
