<?xml version="1.0" encoding="utf-8"?>
<!-- Generator: Adobe Illustrator 27.4.1, SVG Export Plug-In . SVG Version: 6.00 Build 0)  -->
<svg version="1.1" id="Capa_1" xmlns="http://www.w3.org/2000/svg" xmlns:xlink="http://www.w3.org/1999/xlink" x="0px" y="0px"
	 viewBox="0 0 300 185" style="enable-background:new 0 0 300 185;" xml:space="preserve">
<style type="text/css">
	.st0{fill:#6D3F90;}
	.st1{fill:#00A2C5;}
	.st2{fill:#F7CF0D;}
	.st3{fill:#AEC90B;}
	.st4{fill:#CE5392;}
	.st5{fill:#FFFFFF;}
	.st6{fill:none;stroke:#FFFFFF;stroke-width:3;stroke-miterlimit:10;}
</style>
<g>
	<path class="st5" d="M198.47,123.35c-0.17,0.7-0.33,1.4-0.52,2.09c-1.62,5.75-6.63,9.76-12.56,10.07
		c-0.25,0.01-0.51,0.04-0.76,0.03c-1.9-0.09-3.71-0.02-5.37,1.2c-0.69,0.5-1.72,0.73-2.6,0.75c-3.21,0.09-6.43,0.03-9.71,0.03
		c0-14.92,0-29.82,0-44.83c1.3,0,2.58-0.02,3.87,0c2.11,0.03,4.24-0.05,6.32,0.2c1.17,0.14,2.26,0.86,3.4,1.3
		c0.56,0.21,1.14,0.48,1.73,0.52c1.1,0.08,2.2,0.02,3.31,0.02c0.05-0.1,0.12-0.17,0.13-0.26c0.09-5.27,0.22-10.56-1.44-15.65
		c-4.51-13.78-13.8-22.47-28.08-25.08c-18.44-3.37-35.7,7.85-40.69,25.92c-1,3.62-1.26,7.32-1.22,11.05c0.01,1.32,0,2.63,0,4.01
		c1.49,0,2.87,0.02,4.25-0.02c0.25-0.01,0.51-0.21,0.74-0.37c1.54-1.09,3.25-1.65,5.13-1.65c2.87-0.01,5.73,0,8.67,0
		c0,14.96,0,29.86,0,44.87c-1.49,0-2.97,0.02-4.44-0.01c-1.98-0.03-3.98,0.03-5.94-0.21c-1.08-0.13-2.08-0.82-3.14-1.22
		c-0.62-0.23-1.27-0.54-1.92-0.55c-2.53-0.03-5.03-0.05-7.44-1.03c-5.1-2.07-8.6-7.08-8.64-12.58c-0.04-4.48-0.06-8.96,0-13.44
		c0.07-4.97,2.24-8.84,6.36-11.6c0.48-0.32,0.66-0.64,0.66-1.21c0.02-3.31-0.04-6.63,0.16-9.93c0.5-8.12,3.28-15.44,8.21-21.89
		c6.27-8.21,14.45-13.62,24.61-15.58c14.68-2.82,27.5,1.03,38.1,11.65c6.81,6.83,10.63,15.19,11.54,24.78
		c0.34,3.57,0.2,7.18,0.23,10.78c0,0.72,0.22,1.11,0.82,1.51c3.32,2.21,5.31,5.31,6.03,9.23c0.05,0.27,0.13,0.54,0.19,0.81
		C198.47,112.5,198.47,117.93,198.47,123.35z M184.46,129.78c4.51,0.17,8.24-3.42,8.3-7.99c0.06-4.44,0.03-8.89,0-13.33
		c-0.01-1.78-0.56-3.41-1.67-4.82c-1.68-2.13-3.87-3.2-6.64-3.2C184.46,110.27,184.46,119.99,184.46,129.78z M115.55,129.72
		c0-9.74,0-19.48,0-29.25c-0.19-0.02-0.31-0.03-0.43-0.03c-4.16,0.02-7.76,3.57-7.84,7.9c-0.08,4.54-0.03,9.08,0,13.61
		c0.01,0.74,0.16,1.51,0.38,2.22C108.7,127.62,112.29,130.13,115.55,129.72z M127.39,98.38c-0.79,0-1.48,0-2.17,0
		c-2.83,0-3.88,1.04-3.88,3.87c0,8.61,0,17.22,0,25.82c0,0.38,0,0.76,0.05,1.13c0.16,1.32,1.17,2.47,2.49,2.6
		c1.14,0.11,2.31,0.02,3.52,0.02C127.39,120.68,127.39,109.6,127.39,98.38z M172.65,98.44c0,11.16,0,22.27,0,33.42
		c1.14,0,2.21,0.06,3.28-0.01c1.69-0.12,2.75-1.48,2.75-3.45c0.01-8.8,0-17.59,0-26.39c0-0.25,0-0.51-0.02-0.76
		c-0.13-1.46-1.08-2.61-2.51-2.78C175.01,98.33,173.84,98.44,172.65,98.44z"/>
</g>
<circle class="st6" cx="42" cy="30" r="17.5"/>
<g>
	<path class="st5" d="M41.4,36.18c-0.97,0-1.8-0.12-2.49-0.35c-0.7-0.23-1.26-0.53-1.7-0.9c-0.44-0.37-0.76-0.77-0.98-1.19
		s-0.33-0.82-0.34-1.21c0-0.11,0.04-0.21,0.12-0.28c0.08-0.08,0.18-0.11,0.29-0.11h2.47c0.14,0,0.25,0.03,0.34,0.08
		s0.17,0.15,0.24,0.27c0.1,0.24,0.25,0.43,0.44,0.58c0.19,0.15,0.43,0.25,0.71,0.31c0.28,0.06,0.58,0.08,0.9,0.08
		c0.64,0,1.14-0.15,1.5-0.44c0.36-0.29,0.54-0.7,0.54-1.21c0-0.54-0.17-0.92-0.51-1.16c-0.34-0.23-0.82-0.35-1.45-0.35h-2.09
		c-0.14,0-0.25-0.04-0.34-0.13s-0.13-0.2-0.13-0.34v-1.05c0-0.15,0.03-0.28,0.09-0.4c0.06-0.11,0.13-0.19,0.21-0.24l3.09-2.62h-5.23
		c-0.12,0-0.23-0.04-0.33-0.13s-0.14-0.2-0.14-0.34v-1.77c0-0.14,0.05-0.25,0.14-0.34c0.09-0.09,0.2-0.13,0.33-0.13h8.66
		c0.14,0,0.25,0.04,0.35,0.13c0.09,0.09,0.14,0.2,0.14,0.34v1.6c0,0.14-0.03,0.26-0.09,0.37s-0.13,0.19-0.21,0.25l-2.86,2.65
		l0.13,0.04c0.73,0.09,1.37,0.28,1.93,0.56c0.56,0.29,1,0.7,1.33,1.23s0.49,1.21,0.49,2.02c0,0.85-0.24,1.59-0.72,2.21
		s-1.14,1.1-1.97,1.44S42.46,36.18,41.4,36.18z"/>
</g>
</svg>
