<?xml version="1.0" encoding="utf-8"?>
<!-- Generator: Adobe Illustrator 27.4.1, SVG Export Plug-In . SVG Version: 6.00 Build 0)  -->
<svg version="1.1" id="Capa_1" xmlns="http://www.w3.org/2000/svg" xmlns:xlink="http://www.w3.org/1999/xlink" x="0px" y="0px"
	 viewBox="0 0 300 185" style="enable-background:new 0 0 300 185;" xml:space="preserve">
<style type="text/css">
	.st0{fill:#6D3F90;}
	.st1{fill:#00A2C5;}
	.st2{fill:#F7CF0D;}
	.st3{fill:#AEC90B;}
	.st4{fill:#CE5392;}
	.st5{fill:#FFFFFF;}
	.st6{fill:none;stroke:#FFFFFF;stroke-width:3;stroke-miterlimit:10;}
</style>
<path class="st5" d="M129.46,169.96c-1.24-0.68-1.68-1.71-1.67-3.14c0.06-5.24,0.02-10.48,0.02-15.72c0-0.57,0-1.14,0-1.84
	c-0.73-0.03-1.3-0.08-1.86-0.08c-3.86-0.01-7.73,0.05-11.59-0.02c-6.23-0.11-10.83-3.85-12.06-9.69c-0.09-0.41-0.15-0.84-0.17-1.26
	c-0.05-1.52,0.77-2.54,2.11-2.66c1.35-0.12,2.43,0.71,2.6,2.2c0.3,2.55,1.45,4.6,3.75,5.7c1.28,0.61,2.83,0.88,4.27,0.92
	c4.76,0.11,9.53,0.04,14.29,0.04c2.69,0,3.41,0.72,3.41,3.37c0.01,5.19,0,10.37,0,15.56c0,0.57,0,1.13,0,1.77
	c13.06,0,25.96,0,39.07,0c0-2.23,0-4.43,0-6.64c0-0.64-0.02-1.27,0.02-1.9c0.08-1.36,0.82-2.15,2.17-2.28
	c1.29-0.12,2.47,0.74,2.5,2.11c0.09,3.81,0.1,7.62-0.04,11.43c-0.03,0.73-0.92,1.42-1.42,2.13
	C159.75,169.96,144.6,169.96,129.46,169.96z"/>
<path class="st5" d="M213.17,61.91c1.86,0.23,3.79,0.26,5.61,0.72c5.92,1.5,9.95,7.34,9.42,13.4c-0.54,6.22-5.44,11.44-11.62,11.67
	c-7.82,0.3-15.67,0.13-23.5,0.17c-0.74,0-1.47,0-2.42,0c0.28,1.87,0.61,3.61,0.79,5.36c1.63,15.48-2.98,28.81-13.87,39.94
	c-0.85,0.86-1.24,1.69-1.21,2.9c0.08,2.8,0.03,5.61,0.02,8.42c0,0.53,0.01,1.07-0.13,1.57c-0.33,1.23-1.19,1.87-2.47,1.76
	c-1.28-0.11-2.1-0.86-2.12-2.15c-0.05-4.18-0.11-8.37,0.06-12.54c0.03-0.82,0.91-1.74,1.6-2.4c6.59-6.28,10.88-13.85,12.79-22.74
	c1.23-5.71,1.23-11.44,0.12-17.38c-0.39,0.41-0.67,0.68-0.93,0.98c-4.86,5.51-13.58,4.29-16.62-2.38c-0.47-1.04-1-1.37-2.1-1.36
	c-6.78,0.05-13.55,0.06-20.33,0.01c-6.78-0.05-11.83-4.1-13.14-10.42c-1.52-7.34,3.9-14.59,11.38-15.23
	c0.73-0.06,1.46-0.12,2.15-0.17c0.09-2.11,0.18-4.1,0.28-6.2c-3.67-0.48-7.3-0.18-10.88,0.5c-18.16,3.44-31.59,16.79-34.98,34.95
	c-0.67,3.61-0.63,7.37-0.74,11.06c-0.05,1.59-0.36,2.98-1.16,4.35c-2.11,3.61-4.12,7.27-6.16,10.91c-0.25,0.45-0.46,0.91-0.79,1.57
	c3.62,0,7.04,0,10.47,0c2.81,0,4.13,1.32,4.16,4.18c0.01,1.11,0.05,2.23-0.02,3.33c-0.09,1.49-1.1,2.42-2.44,2.39
	c-1.36-0.03-2.23-0.96-2.29-2.51c-0.03-0.79-0.01-1.58-0.01-2.63c-1.65,0-3.22,0-4.79,0c-1.8,0-3.6,0.03-5.4-0.01
	c-3.84-0.09-5.86-3.53-4.02-6.91c2.2-4.04,4.55-8,6.7-12.06c0.56-1.06,0.91-2.38,0.89-3.57c-0.16-9.98,1.84-19.42,7.38-27.8
	c10.56-15.99,25.49-23.58,44.71-22.53c0.57,0.03,1.42-0.19,1.72-0.6c5.62-7.6,12.05-9.83,21.21-7.31c1.24-1.65,2.35-3.39,3.72-4.91
	c10.49-11.6,29.43-9.53,37.11,4.01c0.61,1.08,0.97,2.13,0.12,3.24c-1.12,1.45-3.07,1.16-4.14-0.68c-2.09-3.6-4.99-6.28-8.82-7.92
	c-9.21-3.93-19.87,0.28-23.98,9.45c-1.22,2.73-1.95,2.97-4.62,1.79c-4.89-2.15-9.57-1.71-13.7,1.7c-4.11,3.4-5.51,7.89-4.29,13.11
	c0.67,2.87-0.12,3.89-3.12,3.92c-1.32,0.01-2.65-0.02-3.96,0.12c-4.1,0.42-7.13,3.84-7.15,7.96c-0.01,4.14,2.97,7.68,7.07,8.01
	c3.1,0.25,6.24,0.13,9.36,0.15c5.08,0.02,10.17,0,15.25,0.01c2.32,0.01,2.86,0.49,3.27,2.77c0.46,2.58,2.51,4.37,5.06,4.39
	c2.58,0.03,4.67-1.67,5.19-4.23c0.53-2.6,0.93-2.93,3.61-2.93c9.42,0,18.85,0.02,28.27-0.01c4.47-0.01,7.59-2.4,8.51-6.38
	c1.05-4.56-2.12-9.2-6.77-9.69c-2.25-0.23-4.55-0.12-6.82-0.17c-2.75-0.06-3.49-1.57-2.43-4.12c1-2.41,1.67-4.97,2.28-7.52
	c0.4-1.68,1.2-2.73,2.59-2.66c1.48,0.08,2.39,1.2,2.17,3.06C214.03,57.7,213.56,59.76,213.17,61.91z"/>
<path class="st2" d="M158.22,34.67c-1.63-0.05-2.82-0.83-3.26-2.33c-1.23-4.22-3.92-6.87-8.11-8.12c-1.54-0.46-2.33-1.67-2.33-3.24
	c0.01-1.57,0.83-2.76,2.36-3.22c4.2-1.24,6.85-3.93,8.09-8.14c0.44-1.5,1.66-2.31,3.26-2.29c1.53,0.02,2.56,0.85,3.17,2.24
	c0.53,1.21,1,2.44,1.61,3.61c1.28,2.41,3.55,3.52,5.99,4.36c1.63,0.57,2.79,1.54,2.82,3.39c0.03,1.53-0.67,2.76-2.13,3.2
	c-4.29,1.3-7.07,3.98-8.34,8.31C160.94,33.89,159.74,34.61,158.22,34.67z M151.5,21.01c3.11,1.53,5.21,3.67,6.68,6.71
	c1.46-3.08,3.61-5.17,6.69-6.73c-3.08-1.51-5.19-3.64-6.72-6.71C156.72,17.39,154.55,19.47,151.5,21.01z"/>
<path class="st0" d="M188.42,47.9c0.89,0.72,1.86,1.36,2.65,2.18c0.41,0.42,0.51,1.14,0.73,1.74c1.12,3.13,3.2,5.29,6.38,6.36
	c0.6,0.2,1.36,0.31,1.73,0.74c0.74,0.88,1.73,1.93,1.75,2.93c0.02,1-0.94,2.07-1.64,2.99c-0.31,0.4-1.02,0.5-1.57,0.69
	c-3.38,1.15-5.66,3.38-6.75,6.81c-0.13,0.4-0.29,0.8-0.46,1.18c-0.62,1.32-1.66,2.07-3.11,2.08c-1.44,0.01-2.51-0.71-3.13-2.03
	c-0.13-0.29-0.26-0.58-0.35-0.88c-1.15-3.71-3.53-6.17-7.29-7.28c-0.4-0.12-0.79-0.3-1.16-0.51c-1.15-0.65-1.75-1.66-1.75-2.99
	c0-1.32,0.61-2.33,1.76-2.99c0.32-0.18,0.67-0.33,1.02-0.43c3.86-1.14,6.27-3.69,7.5-7.5C185.35,49.01,186.48,48.23,188.42,47.9z
	 M188.36,55.75c-2.11,2.12-4.23,4.25-6.4,6.43c2.52,1.19,4.62,3.37,6.16,6.44c1.48-3.17,3.68-5.22,6.65-6.72
	C191.66,60.36,189.56,58.21,188.36,55.75z"/>
<path class="st1" d="M220.3,41.08c-1.37-0.02-2.48-0.69-2.91-2.11c-0.94-3.08-2.89-5.04-5.99-5.97c-1.41-0.42-2.13-1.59-2.11-3.03
	c0.02-1.38,0.73-2.5,2.08-2.9c3.1-0.92,5.06-2.87,6.01-5.95c0.43-1.41,1.51-2.12,3.01-2.12c1.51,0,2.57,0.78,2.99,2.16
	c0.92,3.04,2.84,4.95,5.87,5.87c1.39,0.42,2.17,1.5,2.17,2.99c0.01,1.48-0.75,2.58-2.14,3c-3.1,0.94-5.02,2.91-5.96,6
	C222.92,40.35,221.84,41.04,220.3,41.08z M217.53,30.03c0.78,0.81,2,2.09,2.8,2.92c0.87-0.9,2.09-2.16,2.89-2.98
	c-0.78-0.81-1.97-2.05-2.83-2.93C219.52,27.97,218.29,29.24,217.53,30.03z"/>
<path class="st4" d="M152.96,102.74c-0.01-4.39,3.53-7.99,7.91-8.03c4.44-0.04,8.05,3.57,8.03,8.05c-0.02,4.4-3.56,7.93-7.98,7.92
	C156.51,110.68,152.96,107.13,152.96,102.74z M164.12,102.7c-0.01-1.77-1.46-3.22-3.21-3.21c-1.74,0.01-3.19,1.49-3.19,3.24
	c0,1.78,1.42,3.19,3.22,3.18C162.75,105.89,164.13,104.5,164.12,102.7z"/>
<path class="st5" d="M120.66,105.58c-2.32-0.04-5.19-1.19-7.64-3.41c-1.25-1.13-1.43-2.57-0.51-3.62c0.92-1.05,2.33-1.02,3.66,0.06
	c3.7,3.02,7.75,3.03,11.39,0.03c1.32-1.09,2.74-1.14,3.67-0.12c0.98,1.07,0.76,2.51-0.57,3.74
	C128.3,104.43,124.95,105.67,120.66,105.58z"/>
<path class="st3" d="M160.87,73.95c-3.48-0.53-4.26-1.03-4.21-2.61c0.05-1.57,0.85-2.05,3.81-2.43c0.49-1.3,0.86-2.52,1.44-3.63
	c0.17-0.32,0.94-0.46,1.43-0.47c1.57-0.03,2.07,0.83,2.44,3.77c1.3,0.49,2.52,0.86,3.63,1.44c0.33,0.17,0.47,0.93,0.48,1.43
	c0.04,1.57-0.78,2.05-4.12,2.47c-0.15,1.74,0.18,4.1-2.45,4.11C160.66,78.03,160.92,75.73,160.87,73.95z"/>
<circle class="st6" cx="35" cy="29" r="17.5"/>
<g>
	<path class="st5" d="M29.54,35c-0.14,0-0.25-0.05-0.35-0.14s-0.14-0.2-0.14-0.33v-1.34c0-0.09,0.02-0.22,0.07-0.4
		c0.05-0.18,0.18-0.35,0.4-0.52l1.96-1.92c1-0.77,1.83-1.41,2.47-1.95c0.65-0.53,1.13-1.01,1.44-1.42c0.31-0.41,0.47-0.8,0.47-1.17
		c0-0.43-0.11-0.78-0.33-1.06s-0.6-0.42-1.14-0.42c-0.36,0-0.67,0.08-0.9,0.23c-0.24,0.16-0.42,0.36-0.55,0.61
		c-0.13,0.25-0.22,0.51-0.27,0.77c-0.05,0.16-0.13,0.28-0.25,0.34c-0.12,0.06-0.25,0.09-0.39,0.09h-2.35
		c-0.11,0-0.21-0.04-0.28-0.11c-0.07-0.08-0.11-0.17-0.11-0.28c0.01-0.6,0.14-1.17,0.39-1.7c0.24-0.53,0.59-1,1.04-1.4
		s0.98-0.72,1.6-0.95c0.62-0.23,1.32-0.35,2.1-0.35c1.07,0,1.97,0.17,2.72,0.52c0.75,0.35,1.31,0.82,1.7,1.43
		c0.39,0.61,0.58,1.32,0.58,2.14c0,0.61-0.14,1.19-0.41,1.72c-0.27,0.53-0.65,1.04-1.15,1.52c-0.5,0.48-1.08,0.98-1.76,1.5
		l-1.73,1.75h4.84c0.14,0,0.25,0.04,0.35,0.13s0.14,0.2,0.14,0.34v1.9c0,0.13-0.05,0.24-0.14,0.33S39.33,35,39.2,35H29.54z"/>
</g>
</svg>
