<?xml version="1.0" encoding="UTF-8" standalone="no"?>
<!-- Generator: Adobe Illustrator 27.4.1, SVG Export Plug-In . SVG Version: 6.00 Build 0)  -->

<svg
   version="1.1"
   id="Capa_1"
   x="0px"
   y="0px"
   viewBox="0 0 300 185"
   style="enable-background:new 0 0 300 185;"
   xml:space="preserve"
   sodipodi:docname="iconos_teclado.svg"
   inkscape:version="1.2.2 (732a01da63, 2022-12-09)"
   xmlns:inkscape="http://www.inkscape.org/namespaces/inkscape"
   xmlns:sodipodi="http://sodipodi.sourceforge.net/DTD/sodipodi-0.dtd"
   xmlns="http://www.w3.org/2000/svg"
   xmlns:svg="http://www.w3.org/2000/svg"><defs
   id="defs1367" /><sodipodi:namedview
   id="namedview1365"
   pagecolor="#ffffff"
   bordercolor="#000000"
   borderopacity="0.25"
   inkscape:showpageshadow="2"
   inkscape:pageopacity="0.0"
   inkscape:pagecheckerboard="0"
   inkscape:deskcolor="#d1d1d1"
   showgrid="false"
   inkscape:zoom="4.0333334"
   inkscape:cx="153.96694"
   inkscape:cy="94.958676"
   inkscape:window-width="1920"
   inkscape:window-height="1017"
   inkscape:window-x="-8"
   inkscape:window-y="-8"
   inkscape:window-maximized="1"
   inkscape:current-layer="g1356" />
<style
   type="text/css"
   id="style1352">
	.st0{fill:#6D3F90;}
	.st1{fill:#00A2C5;}
	.st2{fill:#F7CF0D;}
	.st3{fill:#AEC90B;}
	.st4{fill:#CE5392;}
	.st5{fill:#FFFFFF;}
	.st6{fill:none;stroke:#FFFFFF;stroke-width:3;stroke-miterlimit:10;}
</style>
<g
   id="g1356">
	<g
   inkscape:groupmode="layer"
   id="layer2"
   inkscape:label="Layer 1"
   style="display:none;fill:#000000"><rect
     style="fill:#000000;stroke-width:1.86709"
     id="rect1423"
     width="300"
     height="185"
     x="0"
     y="0" /></g><g
   inkscape:groupmode="layer"
   id="layer3"
   inkscape:label="Layer 2"
   style="display:inline" /><path
   class="st5"
   d="m 198.47,123.35 c -0.17,0.7 -0.33,1.4 -0.52,2.09 -1.62,5.75 -6.63,9.76 -12.56,10.07 -0.25,0.01 -0.51,0.04 -0.76,0.03 -1.9,-0.09 -3.71,-0.02 -5.37,1.2 -0.69,0.5 -1.72,0.73 -2.6,0.75 -3.21,0.09 -6.43,0.03 -9.71,0.03 0,-14.92 0,-29.82 0,-44.83 1.3,0 2.58,-0.02 3.87,0 2.11,0.03 4.24,-0.05 6.32,0.2 1.17,0.14 2.26,0.86 3.4,1.3 0.56,0.21 1.14,0.48 1.73,0.52 1.1,0.08 2.2,0.02 3.31,0.02 0.05,-0.1 0.12,-0.17 0.13,-0.26 0.09,-5.27 0.22,-10.56 -1.44,-15.65 -4.51,-13.78 -13.8,-22.47 -28.08,-25.08 -18.44,-3.37 -35.7,7.85 -40.69,25.92 -1,3.62 -1.26,7.32 -1.22,11.05 0.01,1.32 0,2.63 0,4.01 1.49,0 2.87,0.02 4.25,-0.02 0.25,-0.01 0.51,-0.21 0.74,-0.37 1.54,-1.09 3.25,-1.65 5.13,-1.65 2.87,-0.01 5.73,0 8.67,0 0,14.96 0,29.86 0,44.87 -1.49,0 -2.97,0.02 -4.44,-0.01 -1.98,-0.03 -3.98,0.03 -5.94,-0.21 -1.08,-0.13 -2.08,-0.82 -3.14,-1.22 -0.62,-0.23 -1.27,-0.54 -1.92,-0.55 -2.53,-0.03 -5.03,-0.05 -7.44,-1.03 -5.1,-2.07 -8.6,-7.08 -8.64,-12.58 -0.04,-4.48 -0.06,-8.96 0,-13.44 0.07,-4.97 2.24,-8.84 6.36,-11.6 0.48,-0.32 0.66,-0.64 0.66,-1.21 0.02,-3.31 -0.04,-6.63 0.16,-9.93 0.5,-8.12 3.28,-15.44 8.21,-21.89 6.27,-8.21 14.45,-13.62 24.61,-15.58 14.68,-2.82 27.5,1.03 38.1,11.65 6.81,6.83 10.63,15.19 11.54,24.78 0.34,3.57 0.2,7.18 0.23,10.78 0,0.72 0.22,1.11 0.82,1.51 3.32,2.21 5.31,5.31 6.03,9.23 0.05,0.27 0.13,0.54 0.19,0.81 0.01,5.44 0.01,10.87 0.01,16.29 z m -14.01,6.43 c 4.51,0.17 8.24,-3.42 8.3,-7.99 0.06,-4.44 0.03,-8.89 0,-13.33 -0.01,-1.78 -0.56,-3.41 -1.67,-4.82 -1.68,-2.13 -3.87,-3.2 -6.64,-3.2 0.01,9.83 0.01,19.55 0.01,29.34 z m -68.91,-0.06 c 0,-9.74 0,-19.48 0,-29.25 -0.19,-0.02 -0.31,-0.03 -0.43,-0.03 -4.16,0.02 -7.76,3.57 -7.84,7.9 -0.08,4.54 -0.03,9.08 0,13.61 0.01,0.74 0.16,1.51 0.38,2.22 1.04,3.45 4.63,5.96 7.89,5.55 z m 11.84,-31.34 c -0.79,0 -1.48,0 -2.17,0 -2.83,0 -3.88,1.04 -3.88,3.87 0,8.61 0,17.22 0,25.82 0,0.38 0,0.76 0.05,1.13 0.16,1.32 1.17,2.47 2.49,2.6 1.14,0.11 2.31,0.02 3.52,0.02 -0.01,-11.14 -0.01,-22.22 -0.01,-33.44 z m 45.26,0.06 c 0,11.16 0,22.27 0,33.42 1.14,0 2.21,0.06 3.28,-0.01 1.69,-0.12 2.75,-1.48 2.75,-3.45 0.01,-8.8 0,-17.59 0,-26.39 0,-0.25 0,-0.51 -0.02,-0.76 -0.13,-1.46 -1.08,-2.61 -2.51,-2.78 -1.14,-0.14 -2.31,-0.03 -3.5,-0.03 z"
   id="path1354"
   style="display:none" />
<path
   style="display:none;fill:#ffffff;fill-opacity:1;stroke-width:0.25"
   d="m 113.84293,152.15063 c -0.5658,-0.5658 -0.61364,-0.79966 -0.61364,-3 v -2.38636 H 101.84293 90.45656 l -0.61363,-0.61364 c -0.3375,-0.3375 -0.61364,-0.88671 -0.61364,-1.22047 0,-0.33376 2.24047,-12.687 4.97882,-27.45164 L 99.18692,90.63372 97.21404,63.1365 C 96.12896,48.01302 95.23849,35.26853 95.23523,34.81541 c -0.004,-0.54698 0.2003,-1.0301 0.6077,-1.4375 l 0.61363,-0.61364 h 52.77273 52.77273 l 0.61363,0.61364 c 0.40741,0.4074 0.61165,0.89052 0.6077,1.4375 -0.003,0.45312 -0.89373,13.19761 -1.97881,28.32109 l -1.97288,27.49722 4.97881,26.8448 c 2.73835,14.76464 4.97882,27.11788 4.97882,27.45164 0,0.33376 -0.27614,0.88297 -0.61364,1.22047 l -0.61363,0.61364 h -11.38637 -11.38636 v 2.38636 c 0,2.20034 -0.0478,2.4342 -0.61364,3 l -0.61363,0.61364 h -10.77273 -10.77273 l -0.61363,-0.61364 c -0.5658,-0.5658 -0.61364,-0.79966 -0.61364,-3 v -2.38636 h -12 -12 v 2.38636 c 0,2.20034 -0.0478,2.4342 -0.61364,3 l -0.61363,0.61364 h -10.77273 -10.77273 z m 19.38636,-9.4996 c 0,-3.87539 0.0996,-6.33192 0.2722,-6.71064 0.14971,-0.32858 1.5016,-1.42323 3.0042,-2.43256 l 2.73199,-1.83513 -0.0667,-6.23963 c -0.0601,-5.62721 -0.10963,-6.26669 -0.50419,-6.51543 -0.31835,-0.2007 -0.55666,-0.20091 -0.875,-7.5e-4 -0.36941,0.23222 -0.45696,0.79008 -0.5625,3.58414 -0.11714,3.10097 -0.16213,3.33913 -0.7152,3.7862 -0.75398,0.60946 -1.81611,0.60923 -2.56961,-5e-4 l -0.59019,-0.47774 -0.125,-8.30786 c -0.11375,-7.55958 -0.16441,-8.3327 -0.5625,-8.58358 -0.31868,-0.20084 -0.55633,-0.20091 -0.875,-2.5e-4 -0.38746,0.24395 -0.4518,0.88271 -0.5625,5.58383 -0.1226,5.20635 -0.13635,5.31753 -0.7152,5.78575 -0.75379,0.60972 -1.81591,0.60968 -2.56961,-1e-4 -0.58552,-0.47372 -0.59118,-0.52748 -0.71519,-6.78565 -0.11204,-5.65407 -0.17037,-6.33671 -0.5625,-6.58372 -0.31874,-0.20077 -0.55626,-0.20077 -0.875,0 -0.39214,0.24701 -0.45046,0.92965 -0.5625,6.58372 -0.12401,6.25817 -0.12968,6.31193 -0.7152,6.78565 -0.75363,0.60972 -1.81576,0.60983 -2.56961,2.4e-4 -0.56902,-0.46012 -0.59468,-0.63181 -0.71519,-4.78592 -0.10873,-3.74789 -0.18195,-4.34451 -0.5625,-4.58398 -0.3185,-0.20041 -0.55651,-0.20036 -0.875,1.7e-4 -0.38746,0.24396 -0.4518,0.88271 -0.5625,5.58383 -0.1226,5.20636 -0.13635,5.31754 -0.7152,5.78576 -0.7536,0.60957 -1.81573,0.6097 -2.56961,2.5e-4 -0.55307,-0.44707 -0.59806,-0.68523 -0.71519,-3.7862 -0.10555,-2.79406 -0.1931,-3.35192 -0.5625,-3.58414 -0.31836,-0.20013 -0.55665,-0.19991 -0.875,7.5e-4 -0.39821,0.25107 -0.44346,0.94566 -0.5038,7.73336 l -0.0663,7.45751 2.00379,3.02499 2.0038,3.025 v 6.30286 6.30287 h 8 8 v -6.11324 z m 48,-0.18963 v -6.30286 l 2.00379,-3.02499 2.0038,-3.025 -0.0663,-7.45751 c -0.0603,-6.7877 -0.10559,-7.48229 -0.50379,-7.73336 -0.31836,-0.20073 -0.55665,-0.20096 -0.875,-7.5e-4 -0.36941,0.23222 -0.45696,0.79008 -0.5625,3.58414 -0.11714,3.10097 -0.16213,3.33914 -0.7152,3.7862 -0.75387,0.60938 -1.816,0.60925 -2.56961,-2.5e-4 -0.57885,-0.46822 -0.59259,-0.5794 -0.71519,-5.78575 -0.1107,-4.70112 -0.17505,-5.33988 -0.5625,-5.58384 -0.3185,-0.20053 -0.55651,-0.20058 -0.875,-1.6e-4 -0.38056,0.23946 -0.45377,0.83608 -0.5625,4.58397 -0.12052,4.15411 -0.14617,4.3258 -0.7152,4.78592 -0.75385,0.60958 -1.81597,0.60948 -2.56961,-2.5e-4 -0.58552,-0.47371 -0.59118,-0.52747 -0.71519,-6.78564 -0.11204,-5.65407 -0.17036,-6.33671 -0.5625,-6.58372 -0.31874,-0.20077 -0.55626,-0.20077 -0.875,0 -0.39214,0.24701 -0.45046,0.92965 -0.5625,6.58372 -0.12401,6.25817 -0.12968,6.31193 -0.7152,6.78564 -0.75369,0.60978 -1.81582,0.60983 -2.56961,1.1e-4 -0.57885,-0.46822 -0.59259,-0.5794 -0.71519,-5.78575 -0.1107,-4.70112 -0.17505,-5.33988 -0.5625,-5.58383 -0.31868,-0.20065 -0.55633,-0.20058 -0.875,2.5e-4 -0.3981,0.25088 -0.44876,1.024 -0.5625,8.58358 l -0.125,8.30786 -0.5902,0.47764 c -0.7535,0.6098 -1.81562,0.61003 -2.56961,5e-4 -0.55307,-0.44706 -0.59805,-0.68522 -0.71519,-3.78619 -0.10555,-2.79406 -0.1931,-3.35193 -0.5625,-3.58415 -0.31835,-0.20013 -0.55665,-0.19991 -0.875,7.5e-4 -0.39456,0.24874 -0.44405,0.88822 -0.5042,6.51543 l -0.0667,6.23963 2.732,1.83514 c 1.5026,1.00932 2.85449,2.10397 3.0042,2.43255 0.17255,0.37868 0.27219,2.83521 0.27219,6.7106 v 6.11324 h 8 8 z m -68.00039,-2.38463 -4e-4,-2.6875 -1.99921,-3 -1.99921,-3 -4e-4,-5.3125 -3.9e-4,-5.3125 h -2.38636 c -2.20034,0 -2.4342,-0.0478 -3,-0.61364 -0.34625,-0.34624 -0.61364,-0.90561 -0.61364,-1.28367 0,-1.66279 2.03937,-20.70913 2.26194,-21.12501 0.13724,-0.25642 0.46455,-0.5813 0.72735,-0.72195 0.66444,-0.3556 85.35698,-0.3556 86.02142,0 0.26281,0.14065 0.59011,0.46553 0.72735,0.72195 0.22257,0.41588 2.26194,19.46222 2.26194,21.12501 0,0.37806 -0.26739,0.93743 -0.61364,1.28367 -0.5658,0.56581 -0.79966,0.61364 -3,0.61364 h -2.38636 l -5e-4,5.3125 -5e-4,5.3125 -1.99921,3 -1.99921,3 -5e-4,2.6875 -8e-5,2.6875 h 9.75 c 5.3625,0 9.75,-0.0727 9.75,-0.16151 0,-0.28162 -9.01579,-48.94342 -9.15275,-49.40099 -0.12409,-0.41462 -2.54827,-0.4375 -46.34725,-0.4375 -43.79898,0 -46.22315,0.0229 -46.34725,0.4375 -0.13696,0.45757 -9.15275,49.11937 -9.15275,49.40099 0,0.0888 4.3875,0.16151 9.75,0.16151 h 9.75 l -5e-4,-2.6875 z m 48.00039,0.6875 v -2 h -12 -12 v 2 2 h 12 12 z m -5.02166,-6.32045 c -0.81248,-0.6238 -0.97834,-1.39317 -0.97834,-4.53812 v -3.14143 h -6 -6 v 3.14143 c 0,3.14495 -0.16586,3.91432 -0.97833,4.53812 -0.31452,0.24148 1.13061,0.30455 6.97833,0.30455 5.84772,0 7.29286,-0.0631 6.97834,-0.30455 z m -0.97834,-12.67955 v -1 h -6 -6 v 1 1 h 6 6 z m -46,-5.7835 c 0,-2.9631 2.29882,-5.2165 5.32164,-5.2165 0.79058,0 0.90743,-0.0856 1.05895,-0.77545 0.37063,-1.68746 2.72595,-3.22455 4.94105,-3.22455 0.78075,0 0.9083,-0.0895 1.05061,-0.73749 0.35924,-1.63558 2.75206,-3.26694 4.78176,-3.26007 0.9965,0.003 3.24556,1.09277 3.59184,1.73981 0.25017,0.46743 0.42448,0.51284 1.40443,0.36589 2.41273,-0.36181 4.88715,1.11209 5.54322,3.30186 0.16858,0.56266 0.3065,2.27558 0.3065,3.8065 v 2.7835 h 0.88303 c 1.05141,0 2.41064,0.53328 3.52433,1.38274 l 0.80928,0.61726 h 6.78336 6.78336 l 0.80928,-0.61726 c 1.11369,-0.84946 2.47292,-1.38274 3.52433,-1.38274 h 0.88303 v -2.7835 c 0,-1.53092 0.13793,-3.24384 0.3065,-3.8065 0.64749,-2.16111 3.15959,-3.67921 5.47545,-3.30889 0.8809,0.14086 1.09002,0.086 1.40914,-0.3696 0.47059,-0.67186 2.69847,-1.72583 3.65491,-1.72907 1.99214,-0.007 4.42913,1.65461 4.78169,3.2598 0.14238,0.64825 0.26985,0.73776 1.05067,0.73776 2.2151,0 4.57042,1.53709 4.94105,3.22455 0.15153,0.68989 0.26837,0.77545 1.05895,0.77545 3.02283,0 5.32164,2.2534 5.32164,5.2165 0,0.73266 0.0583,0.7835 0.89846,0.7835 h 0.89846 l -0.15031,-1.1875 c -0.0827,-0.65313 -0.43567,-4.1125 -0.78446,-7.6875 -0.34879,-3.575 -0.68193,-6.64063 -0.74031,-6.8125 -0.156,-0.45929 -80.08767,-0.45929 -80.24368,0 -0.0584,0.17187 -0.39151,3.2375 -0.7403,6.8125 -0.34879,3.575 -0.70181,7.03437 -0.78447,7.6875 l -0.15031,1.1875 h 0.89846 c 0.84016,0 0.89846,-0.0508 0.89846,-0.7835 z m 86.10375,-27.779 c 0.1026,-0.50951 3.66563,-50.3886 3.65202,-51.125 -0.005,-0.24893 -10.12551,-0.3125 -49.75577,-0.3125 -39.62985,0 -49.75133,0.0636 -49.75654,0.3125 -0.0151,0.72095 3.54965,50.61131 3.65295,51.125 l 0.11312,0.5625 h 45.99047 45.99048 z m -87.49011,-4.05114 c -0.3375,-0.3375 -0.61364,-0.87746 -0.61364,-1.19992 0,-0.32246 -0.45,-9.51886 -1,-20.43644 -0.55,-10.91758 -1,-20.00148 -1,-20.18644 0,-0.18496 0.27614,-0.61242 0.61364,-0.94992 l 0.61363,-0.61364 h 42.61592 c 23.43875,0 42.79803,0.0699 43.02061,0.1553 0.22258,0.0854 0.57091,0.47672 0.77406,0.86957 0.3303,0.63872 0.26267,2.86375 -0.63921,21.03221 -0.55473,11.17485 -1.11747,20.5733 -1.25055,20.88544 -0.13307,0.31214 -0.53191,0.67776 -0.8863,0.8125 -0.41114,0.15631 -15.30089,0.24498 -41.13944,0.24498 h -40.49509 z m 80.29864,-19.38636 c 0.433,-8.73125 0.83471,-16.80313 0.89268,-17.9375 l 0.10541,-2.0625 h -39.95814 -39.95814 l 0.12227,0.9375 c 0.0673,0.51562 0.47366,8.475 0.90312,17.6875 0.42947,9.2125 0.82238,16.89098 0.87315,17.0633 0.0735,0.24965 7.82644,0.30044 38.16233,0.25 l 38.07004,-0.0633 z m -68.91228,4 v -2 h 7 7 v 2 2 h -7 -7 z m 18,0 v -2 h 21 21 v 2 2 h -21 -21 z m -20,-8 v -2 h 5 5 v 2 2 h -5 -5 z m 16,0 v -2 h 24 24 v 2 2 h -24 -24 z m -18,-8 v -2 h 3 3 v 2 2 h -3 -3 z m 12,0 v -2 h 28 28 v 2 2 h -28 -28 z"
   id="path1464" /><path
   style="display:inline;fill:#ffffff;stroke-width:0.210497"
   d="m 104.31668,149.0182 c -0.45106,-0.31593 -0.46783,-0.4513 -0.46783,-3.77391 0,-3.73948 0.10511,-4.1078 1.17276,-4.1078 0.48726,0 0.5112,-0.0622 0.5112,-1.328 0,-0.78918 0.11643,-1.48727 0.28706,-1.72056 0.37052,-0.50674 0.10656,-1.54134 -1.12905,-4.4241 -1.53213,-3.57477 -1.4682,-2.84477 -1.47098,-16.79761 -0.003,-13.78946 -0.053,-13.2184 1.2625,-14.32538 0.7675,-0.6458 2.08366,-1.04354 2.83182,-0.85577 0.50259,0.12614 0.5342,0.0861 0.53531,-0.67812 0.003,-1.874179 0.82584,-3.315546 2.33237,-4.084124 0.87703,-0.447419 2.68811,-0.55543 3.35236,-0.199933 0.32874,0.175936 0.57197,0.03565 1.43556,-0.827939 0.71709,-0.717085 1.27994,-1.084817 1.81374,-1.184955 2.09718,-0.393439 4.04814,0.495143 4.81562,2.193316 l 0.44738,0.98989 1.31383,-0.08366 c 1.12529,-0.07165 1.44813,-0.0053 2.2497,0.464804 0.51473,0.301656 1.15725,0.904513 1.42782,1.339684 l 0.49193,0.791227 0.10525,10.31437 0.10525,10.31437 0.48702,-1.57873 c 1.57496,-5.1053 1.97574,-6.25489 2.32431,-6.66677 1.72961,-2.0437 5.19896,-1.70043 6.32508,0.62582 0.24268,0.50129 0.44121,1.29448 0.44121,1.76266 0,0.97511 -1.93641,7.8981 -2.9986,10.72048 -0.8232,2.18737 -1.68401,3.5591 -3.68084,5.8655 -3.56964,4.12308 -4.64943,5.73207 -4.35742,6.49302 0.0668,0.17424 0.13837,0.86996 0.15892,1.54602 0.0357,1.17259 0.0639,1.2323 0.61391,1.29562 1.05529,0.12144 1.21265,0.65286 1.21265,4.09472 0,3.03213 -0.0146,3.13477 -0.51668,3.63686 -0.60206,0.60208 -0.89961,0.63856 -1.54146,0.189 -0.43903,-0.30752 -0.46783,-0.4824 -0.46783,-2.84171 v -2.51403 h -9.68287 -9.68288 v 2.32503 c 0,2.1879 -0.0305,2.35552 -0.51668,2.84171 -0.60206,0.60208 -0.89961,0.63856 -1.54144,0.189 z m 19.63465,-8.40796 c 0,-0.41258 -0.15872,-0.42209 -7.94626,-0.47614 l -7.94629,-0.0551 v 0.5313 0.5313 l 7.94629,-0.0551 c 7.78754,-0.0541 7.94626,-0.0636 7.94626,-0.47615 z m 0.0596,-3.99944 c 0.51743,-1.3266 1.52766,-2.77905 3.51376,-5.05194 3.52938,-4.03899 3.855,-4.59087 5.21646,-8.84088 1.38331,-4.31824 2.12848,-7.34493 1.96686,-7.98886 -0.16613,-0.66195 -0.96933,-1.0266 -1.67244,-0.75928 -0.59342,0.22561 -0.70331,0.4891 -1.9137,4.58792 -1.10983,3.75834 -1.38821,4.35957 -2.21698,4.78814 -1.05522,0.54569 -2.01574,0.41305 -2.90431,-0.40107 l -0.78627,-0.72038 -0.10525,-10.63916 c -0.1142,-11.53995 -0.0642,-11.09302 -1.2721,-11.38857 -0.37414,-0.0915 -0.70695,0.004 -1.10511,0.31717 l -0.56975,0.44817 -0.003,7.2995 c -0.003,8.02122 -0.0431,8.30914 -1.15943,8.40683 -1.30571,0.11419 -1.24819,0.51662 -1.36344,-9.53816 l -0.10525,-9.183295 -0.49693,-0.402188 c -0.66476,-0.538018 -1.67295,-0.513469 -2.27858,0.05552 l -0.4872,0.457687 v 8.862606 c 0,7.68067 -0.0437,8.92499 -0.32768,9.33043 -0.39169,0.55922 -1.26391,0.61669 -1.81334,0.11945 -0.35998,-0.32577 -0.38495,-0.8635 -0.38495,-8.28626 0,-7.7118 -0.0118,-7.95368 -0.43628,-8.49251 -0.3365,-0.427802 -0.62181,-0.554627 -1.24769,-0.554627 -0.62589,0 -0.91119,0.126825 -1.24771,0.554627 -0.42377,0.53873 -0.43627,0.78113 -0.43627,8.45593 0,8.68232 10e-4,8.67122 -1.26984,8.67122 -1.09768,0 -1.14222,-0.22668 -1.25613,-6.39163 l -0.10525,-5.69638 -0.56449,-0.31656 c -0.51652,-0.28967 -0.60201,-0.2826 -1.00609,0.0832 -0.44043,0.39859 -0.44147,0.43356 -0.38275,13.04386 l 0.0588,12.64419 1.11872,2.59056 c 0.61531,1.42482 1.22714,3.10732 1.35962,3.73891 l 0.24086,1.14834 7.55738,-0.0551 7.55739,-0.0551 z m 47.29272,12.2184 c -0.5021,-0.50209 -0.51668,-0.60473 -0.51668,-3.63686 0,-3.44186 0.15736,-3.97322 1.21266,-4.09472 0.55858,-0.0643 0.58037,-0.11564 0.69835,-1.64511 0.18313,-2.37415 -0.0618,-2.8141 -4.28295,-7.68955 -1.97554,-2.28183 -2.77986,-3.55911 -3.6341,-5.77102 -1.04858,-2.71509 -3.04534,-9.80625 -3.04534,-10.81496 0,-3.49648 4.48786,-5.08068 6.76629,-2.38848 0.34857,0.41188 0.74937,1.56147 2.32431,6.66677 l 0.48702,1.57873 0.10525,-10.31437 0.10525,-10.31437 0.49195,-0.791226 c 0.27055,-0.435171 0.91307,-1.038028 1.4278,-1.339684 0.80158,-0.469758 1.12441,-0.536452 2.2497,-0.464804 l 1.31383,0.08366 0.44738,-0.98989 c 0.76748,-1.698173 2.71844,-2.586755 4.81563,-2.193316 0.53379,0.100145 1.09664,0.46787 1.81373,1.184955 0.8636,0.863599 1.10682,1.003875 1.43556,0.827939 0.66425,-0.355497 2.47535,-0.247486 3.35236,0.199933 1.50654,0.768578 2.32968,2.209945 2.33239,4.084123 0.001,0.76422 0.0327,0.80427 0.5353,0.67812 0.74816,-0.18777 2.06431,0.20997 2.83181,0.85578 1.31541,1.10684 1.265,0.53534 1.265,14.33979 0,14.02727 0.0825,13.11281 -1.5245,16.88844 -1.18754,2.79 -1.44416,3.81812 -1.07801,4.31885 0.17058,0.23329 0.28704,0.93138 0.28704,1.72056 0,1.26578 0.0239,1.328 0.5112,1.328 1.06762,0 1.17277,0.36832 1.17277,4.1078 0,3.32261 -0.0168,3.45798 -0.46783,3.77391 -0.64183,0.44956 -0.93939,0.41308 -1.54145,-0.189 -0.48758,-0.48757 -0.51668,-0.65058 -0.51671,-2.89433 l -4e-5,-2.37766 h -9.68287 -9.68288 l 3e-5,2.56666 c 2e-5,2.41369 -0.0278,2.58618 -0.46781,2.89433 -0.64183,0.44956 -0.93938,0.41308 -1.54146,-0.189 z m 19.69105,-8.21896 V 140.084 h -7.88122 c -5.26721,0 -7.92646,0.0731 -8.01755,0.22058 -0.075,0.1213 -0.0835,0.35813 -0.0191,0.52624 0.0996,0.25971 1.30507,0.30567 8.01755,0.30567 h 7.90026 z m -0.26757,-4.19797 c 0.13218,-0.63016 0.74374,-2.31151 1.35906,-3.73633 l 1.11873,-2.59056 0.0588,-12.64419 c 0.0587,-12.61029 0.0578,-12.64527 -0.38276,-13.04385 -0.40407,-0.3657 -0.48958,-0.37277 -1.0061,-0.0832 l -0.56447,0.31656 -0.10525,5.69637 c -0.11327,6.13149 -0.16292,6.39163 -1.21957,6.39163 -0.29508,0 -0.70973,-0.15677 -0.92145,-0.34837 -0.35998,-0.32576 -0.38495,-0.86349 -0.38495,-8.28625 0,-7.71182 -0.0118,-7.95369 -0.43628,-8.492525 -0.33651,-0.427803 -0.62181,-0.554627 -1.2477,-0.554627 -0.62588,0 -0.91119,0.126824 -1.2477,0.554627 -0.42378,0.538735 -0.43627,0.781135 -0.43627,8.455945 0,8.69482 0.003,8.6712 -1.28368,8.6712 -1.23603,0 -1.24229,-0.0493 -1.24229,-9.76878 0,-8.779439 -0.003,-8.836062 -0.45769,-9.320285 -0.56805,-0.604667 -1.61821,-0.643339 -2.30809,-0.085 l -0.49693,0.402187 -0.10525,9.183298 c -0.11525,10.05479 -0.0577,9.65243 -1.36344,9.53817 -1.11631,-0.0977 -1.15601,-0.38561 -1.15942,-8.40683 l -0.003,-7.29951 -0.56977,-0.44817 c -0.39816,-0.31321 -0.73097,-0.40873 -1.10511,-0.31717 -1.20786,0.29555 -1.15793,-0.15138 -1.27208,11.38858 l -0.10525,10.63916 -0.78628,0.72037 c -0.88858,0.81413 -1.8491,0.94677 -2.90432,0.40108 -0.82877,-0.42857 -1.10715,-1.02981 -2.21698,-4.78814 -1.21037,-4.09882 -1.32028,-4.36231 -1.9137,-4.58792 -0.7031,-0.26732 -1.50629,0.0974 -1.67244,0.75927 -0.16161,0.64394 0.58355,3.67063 1.96686,7.98886 1.36146,4.25002 1.68708,4.80189 5.21647,8.84089 1.56149,1.78696 3.25763,4.06988 3.25763,4.38462 0,0.0493 0.14334,0.43275 0.31856,0.8521 l 0.31857,0.76245 h 7.53162 7.53163 z M 84.529894,122.91654 84.062064,122.58885 V 95.795014 c 0,-25.690115 0.01579,-26.808197 0.384946,-27.142217 0.356438,-0.322568 5.178484,-0.348367 65.11628,-0.348367 62.44335,0 64.74367,0.01362 65.07971,0.384941 0.32031,0.353944 0.34838,2.539689 0.34838,27.142217 v 26.757262 l -0.46783,0.32769 c -0.40169,0.28134 -1.50431,0.32768 -7.79797,0.32768 h -7.33013 l -0.51668,-0.51668 c -0.62677,-0.62677 -0.65123,-1.03275 -0.0956,-1.58829 0.40317,-0.40317 0.70166,-0.421 7.05166,-0.421 h 6.63067 V 95.774326 70.830398 H 149.52676 86.58807 v 24.943928 24.943924 h 6.82923 c 6.81851,0 6.82974,6.3e-4 7.15691,0.46783 0.44102,0.62966 0.41243,1.1314 -0.0933,1.63714 -0.4053,0.40532 -0.701655,0.421 -7.952063,0.421 -6.475515,0 -7.596637,-0.0459 -7.998897,-0.32768 z m 54.320386,0.11301 c -0.63575,-0.25582 -0.82684,-1.12445 -0.39302,-1.78654 l 0.34381,-0.52471 h 10.941 c 10.66035,0 10.95181,0.0105 11.362,0.421 0.55554,0.55554 0.53109,0.96152 -0.0956,1.58829 l -0.51668,0.51668 -10.58706,-0.0133 c -5.82288,-0.008 -10.79735,-0.098 -11.05437,-0.20138 z m -47.49342,-8.59012 c -0.460081,-0.50839 -0.442728,-1.35888 0.03657,-1.79264 0.331415,-0.29994 0.975392,-0.34838 4.63094,-0.34838 3.965322,0 4.27382,0.0278 4.66697,0.421 0.23156,0.23154 0.42101,0.61044 0.42101,0.84199 0,0.23154 -0.18945,0.61044 -0.42101,0.84199 -0.39339,0.3934 -0.701648,0.42099 -4.703543,0.42099 -3.881557,0 -4.315195,-0.0361 -4.630954,-0.38495 z m 47.78288,0 c -0.3658,-0.40419 -0.44855,-1.03408 -0.18727,-1.42539 0.44723,-0.66978 1.11761,-0.71563 10.46475,-0.71563 h 9.39054 l 0.51666,0.51668 c 0.60208,0.60206 0.63856,0.89963 0.18901,1.54146 l -0.32769,0.46783 h -9.84881 c -9.27404,0 -9.86914,-0.0225 -10.19719,-0.38495 z m 63.01132,-0.036 c -0.23154,-0.23155 -0.421,-0.61045 -0.421,-0.84199 0,-0.23155 0.18946,-0.61045 0.421,-0.84199 0.37552,-0.37553 0.70166,-0.421 3.01959,-0.421 2.84678,0 3.29532,0.1769 3.29532,1.29956 0,1.0348 -0.52053,1.22641 -3.33191,1.22641 -2.28134,0 -2.60812,-0.046 -2.983,-0.42099 z M 91.055336,105.65581 c -0.555581,-0.38914 -0.628032,-1.37653 -0.13706,-1.86751 0.280987,-0.28098 1.039278,-0.33077 5.036911,-0.33077 5.172353,0 5.367663,0.046 5.367663,1.26608 0,1.15686 -0.43896,1.25988 -5.367663,1.25988 -3.670652,0 -4.512391,-0.0563 -4.899851,-0.32768 z m 38.310494,0 c -0.61522,-0.43093 -0.65299,-1.66338 -0.0606,-1.98039 0.22394,-0.11983 1.59207,-0.21789 3.04028,-0.21789 2.48237,0 2.65188,0.0268 2.9608,0.46783 0.44957,0.64183 0.41307,0.93939 -0.189,1.54145 -0.48772,0.48774 -0.6502,0.51668 -2.90011,0.51668 -1.81653,0 -2.49474,-0.0779 -2.85129,-0.32768 z m 9.84654,-0.0933 c -0.52537,-0.52536 -0.54125,-1.2994 -0.0361,-1.7566 0.31503,-0.2851 0.86342,-0.34837 3.01958,-0.34837 2.89683,0 3.33138,0.17222 3.33138,1.32025 0,0.97864 -0.6431,1.20572 -3.41479,1.20572 -2.19846,0 -2.52678,-0.0478 -2.90012,-0.421 z m 9.97599,-0.1088 c -0.3864,-0.38639 -0.49199,-0.65697 -0.39018,-0.99986 0.26204,-0.88261 0.66089,-0.99636 3.49332,-0.99636 2.53525,0 2.70249,0.026 3.01198,0.46783 0.44955,0.64183 0.41307,0.93939 -0.189,1.54145 -0.48913,0.48915 -0.64673,0.51668 -2.95653,0.51668 -2.32615,0 -2.46454,-0.0247 -2.96959,-0.52974 z m 10.65274,0.1088 c -0.52536,-0.52536 -0.54124,-1.2994 -0.036,-1.7566 0.31504,-0.2851 0.86342,-0.34837 3.01959,-0.34837 2.89682,0 3.33138,0.17222 3.33138,1.32025 0,0.97864 -0.64311,1.20572 -3.41479,1.20572 -2.19846,0 -2.52679,-0.0478 -2.90013,-0.421 z m 40.04133,0.0933 c -0.57761,-0.40457 -0.62057,-1.36332 -0.0829,-1.84992 0.32836,-0.29715 0.94509,-0.34836 4.19492,-0.34836 4.19274,0 4.47152,0.0789 4.47152,1.26608 0,1.11765 -0.51092,1.25988 -4.52568,1.25988 -2.90857,0 -3.67884,-0.0622 -4.05786,-0.32768 z M 90.926906,96.659645 c -0.261082,-0.190914 -0.351846,-0.488617 -0.303353,-0.99506 0.119589,-1.249663 0.242572,-1.266779 8.66574,-1.206886 l 7.544067,0.05368 0.40709,0.502957 c 0.4069,0.502746 0.38044,1.085113 -0.0752,1.65464 -0.31104,0.388769 -15.706009,0.379961 -16.238343,-0.0093 z m 33.878324,-0.19542 c -0.44954,-0.641833 -0.41307,-0.939391 0.189,-1.541459 0.48523,-0.485222 0.65501,-0.516488 2.78911,-0.513574 2.6983,0.0039 3.29458,0.219181 3.39187,1.225812 0.1163,1.203399 -0.11748,1.297057 -3.23829,1.297057 -2.65895,0 -2.82094,-0.02421 -3.13169,-0.467836 z m 10.09561,0.12568 c -0.20696,-0.206972 -0.31686,-0.600108 -0.27816,-0.995067 0.0939,-0.958453 0.72576,-1.182001 3.35095,-1.185652 1.94463,-0.0026 2.30639,0.05348 2.78909,0.43317 0.63334,0.498195 0.69673,0.951145 0.22695,1.621862 -0.30976,0.442242 -0.47589,0.467837 -3.03718,0.467837 -2.22071,0 -2.77121,-0.0617 -3.05165,-0.34215 z m 9.92233,-0.04282 c -0.50599,-0.559134 -0.42774,-1.206045 0.20628,-1.704752 0.48268,-0.379685 0.84444,-0.435868 2.78908,-0.433171 2.62518,0.0039 3.25699,0.227199 3.35094,1.185653 0.11538,1.177495 -0.27986,1.337217 -3.30911,1.337217 -2.33755,0 -2.73432,-0.05032 -3.03719,-0.384947 z m 10.70641,0.04282 c -0.20696,-0.206972 -0.31687,-0.600108 -0.27816,-0.995067 0.0939,-0.958453 0.72575,-1.182001 3.35094,-1.185652 1.94463,-0.0026 2.3064,0.05348 2.78909,0.43317 0.64685,0.508805 0.71853,1.244618 0.16968,1.741326 -0.56178,0.50841 -5.52424,0.513528 -6.03155,0.0059 z m 9.90164,-0.12568 c -0.46979,-0.670717 -0.4064,-1.123668 0.22696,-1.621862 0.48268,-0.379685 0.84445,-0.435868 2.78909,-0.433171 2.62519,0.0039 3.25698,0.227199 3.35093,1.185653 0.11551,1.179146 -0.27804,1.337216 -3.3298,1.337216 -2.56129,0 -2.72743,-0.02559 -3.03718,-0.467836 z m 29.85368,-0.06703 c -0.44053,-0.672328 -0.13913,-1.478112 0.6676,-1.784832 0.30401,-0.115577 2.91961,-0.204906 5.94914,-0.20317 6.05864,0.0033 6.41439,0.07029 6.52608,1.225812 0.12669,1.310871 0.19714,1.297057 -6.61333,1.297057 h -6.17903 z M 91.429495,87.670181 c -0.23156,-0.231547 -0.421008,-0.610442 -0.421008,-0.841989 0,-0.231547 0.189448,-0.610442 0.421008,-0.841989 0.404234,-0.404254 0.699377,-0.42087 7.420016,-0.417772 3.849479,0.002 7.103259,0.07281 7.230649,0.157873 0.27589,0.184225 0.71562,0.982128 0.71562,1.298545 0,0.123377 -0.18944,0.413785 -0.42099,0.645332 -0.40424,0.404234 -0.70165,0.420994 -7.472641,0.420994 -6.771001,0 -7.06842,-0.01677 -7.472654,-0.420994 z m 19.503625,0.03605 c -0.46009,-0.50839 -0.44274,-1.358884 0.0366,-1.792654 0.31382,-0.283993 0.85839,-0.348366 2.94697,-0.348366 2.28135,0 2.60814,0.04611 2.98301,0.420995 0.23154,0.231547 0.42099,0.610442 0.42099,0.841989 0,0.231547 -0.18945,0.610442 -0.42099,0.841989 -0.37553,0.37552 -0.70166,0.420994 -3.01959,0.420994 -2.25013,0 -2.6453,-0.05164 -2.94695,-0.384947 z m 9.96598,-0.03605 c -0.23154,-0.231547 -0.42098,-0.610442 -0.42098,-0.841989 0,-0.231547 0.18944,-0.610442 0.42098,-0.841989 0.37335,-0.373337 0.70167,-0.420995 2.90013,-0.420995 2.80281,0 3.41479,0.222634 3.41479,1.242296 0,1.095658 -0.488,1.283671 -3.33191,1.283671 -2.28134,0 -2.60813,-0.04611 -2.98301,-0.420994 z m 10.01366,0.09021 c -0.5121,-0.512094 -0.49773,-1.229232 0.0366,-1.826814 0.28001,-0.313154 0.71893,-0.36837 2.92797,-0.36837 2.31794,0 2.64407,0.04545 3.01958,0.420995 0.23155,0.231547 0.421,0.610442 0.421,0.841989 0,0.231547 -0.18945,0.610442 -0.421,0.841989 -0.37581,0.37583 -0.70165,0.420994 -3.03717,0.420994 -2.09768,0 -2.68174,-0.06558 -2.94695,-0.330783 z m 9.91098,-0.05414 c -0.49722,-0.549424 -0.43977,-1.421646 0.11945,-1.813342 0.3579,-0.250676 1.03939,-0.327679 2.90012,-0.327679 2.7527,0 3.36795,0.226943 3.36795,1.242296 0,1.101907 -0.48206,1.283672 -3.40451,1.283672 -2.28507,0 -2.68087,-0.05111 -2.98301,-0.384947 z m 10.73534,0 c -0.46008,-0.508391 -0.44272,-1.358885 0.0366,-1.792654 0.3138,-0.283994 0.85837,-0.348367 2.94695,-0.348367 2.28135,0 2.60814,0.04611 2.98301,0.420995 0.23154,0.231547 0.42099,0.610442 0.42099,0.841989 0,0.231547 -0.18945,0.610442 -0.42099,0.841989 -0.37553,0.375521 -0.70166,0.420995 -3.01957,0.420995 -2.25015,0 -2.64532,-0.05164 -2.94698,-0.384947 z m 10.01283,0.0573 c -0.58407,-0.409115 -0.60543,-1.218701 -0.0468,-1.777288 0.37334,-0.373337 0.70166,-0.420995 2.90014,-0.420995 2.8028,0 3.41479,0.222634 3.41479,1.242296 0,1.091501 -0.49179,1.283672 -3.28507,1.283672 -1.93575,0 -2.62296,-0.07549 -2.98301,-0.327685 z m 10.01328,0.06453 c -0.57399,-0.451207 -0.63274,-1.096362 -0.15514,-1.703528 0.43381,-0.55151 0.47629,-0.559318 3.04062,-0.559318 2.56434,0 2.6068,0.0078 3.04063,0.559318 0.28335,0.360246 0.39361,0.716112 0.30975,0.999862 -0.24912,0.843002 -0.67809,0.966788 -3.35038,0.966788 -1.72174,0 -2.65954,-0.08551 -2.88548,-0.263122 z m 9.86452,-0.121825 c -0.49722,-0.549424 -0.43977,-1.421646 0.11946,-1.813342 0.35913,-0.251545 1.04383,-0.327679 2.94696,-0.327679 2.19846,0 2.52678,0.04769 2.90011,0.420995 0.52538,0.525362 0.54126,1.299406 0.036,1.7566 -0.31502,0.285105 -0.8634,0.348373 -3.01957,0.348373 -2.28506,0 -2.68086,-0.05111 -2.98302,-0.384947 z m 9.966,-0.03605 c -0.23155,-0.231547 -0.421,-0.610442 -0.421,-0.841989 0,-0.231547 0.18945,-0.610442 0.421,-0.841989 0.37608,-0.376093 0.70165,-0.420995 3.05221,-0.420995 2.35054,0 2.67612,0.04493 3.05221,0.420995 0.23153,0.231547 0.42098,0.610442 0.42098,0.841989 0,0.231547 -0.18945,0.610442 -0.42098,0.841989 -0.37609,0.376086 -0.70167,0.420995 -3.05221,0.420995 -2.35056,0 -2.67613,-0.04493 -3.05221,-0.420995 z m 10.03124,0.03605 c -0.46842,-0.5176 -0.43926,-1.208143 0.0726,-1.720026 0.38046,-0.380454 0.70166,-0.420995 3.33534,-0.420995 2.55603,0 2.95717,0.0473 3.26271,0.384941 0.46008,0.50839 0.44273,1.358885 -0.0366,1.792654 -0.31966,0.289282 -0.88536,0.348373 -3.33533,0.348373 -2.59095,0 -2.99283,-0.0469 -3.29875,-0.384947 z M 91.688025,78.991338 C 91.047048,78.68242 90.876426,77.904481 91.30588,77.249026 l 0.343821,-0.524704 h 5.435448 c 4.998441,0 5.463461,0.03098 5.783821,0.38494 0.46842,0.5176 0.43927,1.208143 -0.0726,1.720033 -0.39868,0.398688 -0.6914,0.420238 -5.52554,0.406746 -3.236949,-0.0091 -5.279522,-0.09856 -5.58277,-0.244703 z m 14.992945,-0.257727 c -0.60207,-0.602069 -0.63856,-0.899626 -0.189,-1.541459 0.3095,-0.44186 0.47674,-0.46783 3.01198,-0.46783 2.97935,0 3.44888,0.15811 3.44888,1.161432 0,1.110656 -0.62294,1.364535 -3.34822,1.364535 -2.27487,0 -2.43531,-0.02835 -2.92364,-0.516678 z m 10.06082,0.200222 c -0.58281,-0.417035 -0.62834,-1.372758 -0.0887,-1.861145 0.31502,-0.285099 0.86341,-0.348366 3.01959,-0.348366 2.28505,0 2.68085,0.05105 2.98299,0.38494 0.42718,0.472027 0.44603,1.084831 0.05,1.627171 -0.26246,0.359476 -0.61044,0.416284 -2.89433,0.472461 -2.12245,0.05223 -2.6824,0.002 -3.06962,-0.275061 z m 10.0993,0.05749 c -0.641,-0.308918 -0.81163,-1.086857 -0.38216,-1.742312 0.33706,-0.514416 0.3971,-0.524704 3.06038,-0.524704 3.00295,0 3.37815,0.140618 3.37815,1.266082 0,1.029634 -0.60731,1.261898 -3.25692,1.245637 -1.2767,-0.0078 -2.53645,-0.117957 -2.79945,-0.244703 z m 9.89214,-0.06873 c -0.55555,-0.389137 -0.62801,-1.376528 -0.13703,-1.867506 0.26644,-0.266443 0.85775,-0.330777 3.04027,-0.330777 2.56129,0 2.72742,0.02559 3.03717,0.46783 0.46979,0.670717 0.40642,1.123668 -0.22694,1.621862 -0.48574,0.382079 -0.84599,0.436276 -2.90013,0.436276 -1.78218,0 -2.45786,-0.0787 -2.81334,-0.327685 z m 10.61169,-0.108591 c -0.63338,-0.498194 -0.69675,-0.951145 -0.22697,-1.621862 0.30976,-0.442241 0.47589,-0.46783 3.03718,-0.46783 2.99527,0 3.37106,0.141139 3.37106,1.266082 0,1.026767 -0.60712,1.259886 -3.28116,1.259886 -2.05414,0 -2.41439,-0.0542 -2.90011,-0.436276 z m 10.01705,0.108591 c -0.55557,-0.389137 -0.62802,-1.376528 -0.13705,-1.867506 0.26654,-0.266536 0.85841,-0.330777 3.04736,-0.330777 2.66329,0 2.72332,0.01026 3.06039,0.524704 0.4446,0.678545 0.25253,1.437217 -0.44421,1.754679 -0.84219,0.383724 -4.9489,0.323462 -5.52649,-0.08109 z m 10.26753,0.1816 c -0.8497,-0.303676 -1.10624,-1.443992 -0.45704,-2.031516 0.31503,-0.285099 0.86342,-0.348367 3.01959,-0.348367 2.89682,0 3.33137,0.17222 3.33137,1.320246 0,0.969938 -0.65135,1.207754 -3.2569,1.189099 -1.27671,-0.0092 -2.46336,-0.0674 -2.63702,-0.129469 z m 9.67989,-0.235007 c -0.57843,-0.468396 -0.62598,-1.472205 -0.0883,-1.865342 0.27049,-0.197788 1.16733,-0.279534 3.06659,-0.279534 2.53524,0 2.70248,0.02598 3.01198,0.46783 0.44956,0.641833 0.41308,0.939391 -0.189,1.541459 -0.48833,0.488321 -0.64876,0.516679 -2.92364,0.516679 -2.00932,0 -2.48472,-0.06295 -2.8776,-0.381092 z m 9.89637,-0.03993 c -0.52536,-0.525362 -0.54125,-1.299406 -0.0361,-1.756607 0.31503,-0.285098 0.86341,-0.348366 3.01957,-0.348366 2.28508,0 2.68087,0.05105 2.98303,0.38494 0.46841,0.5176 0.43926,1.208143 -0.0726,1.720033 -0.37421,0.374218 -0.70165,0.420994 -2.94696,0.420994 -2.24529,0 -2.57273,-0.04677 -2.94695,-0.420994 z m 11.44945,-0.108748 c -0.38638,-0.386388 -0.49197,-0.656969 -0.39017,-0.999862 0.27957,-0.941601 0.56393,-0.996356 5.17419,-0.996356 4.79933,0 5.02674,0.05729 5.02674,1.266082 0,1.146052 -0.46154,1.259885 -5.10833,1.259885 h -4.17268 z M 150.3241,66.67309 c -0.17622,-0.202604 -0.38286,-0.779643 -0.4592,-1.282304 -0.26002,-1.711895 -1.12157,-2.927774 -2.65364,-3.74501 -0.6751,-0.360121 -1.46748,-0.4018 -9.47237,-0.49824 l -8.73564,-0.105249 -1.06209,-0.56062 c -1.35489,-0.715165 -2.65198,-2.012255 -3.28394,-3.283942 -0.42126,-0.847686 -0.49513,-1.311911 -0.49357,-3.101846 10e-4,-1.793259 0.0739,-2.240553 0.48858,-3.020517 0.74004,-1.392006 2.0554,-2.695175 3.37399,-3.342717 l 1.18752,-0.583176 20.1025,-0.105249 c 22.54706,-0.118049 20.69643,0.02427 22.17703,-1.705462 0.53051,-0.61979 0.81619,-1.2192 0.98079,-2.057868 0.3226,-1.643753 0.34174,-1.683938 0.92959,-1.951777 0.42482,-0.193565 0.6294,-0.169167 1.08508,0.129404 0.53525,0.350708 0.55685,0.433446 0.46116,1.76646 -0.20537,2.860777 -2.1149,5.151717 -5.01083,6.011717 -0.98873,0.293624 -3.4399,0.334046 -20.50316,0.338111 -21.88091,0.0053 -20.32208,-0.114194 -21.85282,1.674131 -1.87439,2.189804 -1.18385,5.691048 1.36585,6.925339 0.86382,0.418172 1.25159,0.438446 8.65078,0.452404 4.41376,0.0083 8.25795,0.109156 8.93544,0.234402 3.0154,0.55743 5.15259,2.702411 5.70642,5.727243 0.22702,1.239895 0.0851,1.912329 -0.48349,2.29204 -0.40832,0.27264 -1.10405,0.172075 -1.43398,-0.207274 z"
   id="path2016"
   sodipodi:nodetypes="sssssscsscssssscscscccssssssssssssscccsssssccccsscssssssscsscccsscsscsssssssssscssscssccccssssssssscccssscssssscssssssssssscccssssccsssscccsccsscsssssssssscscssccscscsssssssssccccscssssscsscssscccccccscssssscsssccssssssssssssscsscssssssssssssssssssssssscsssscssssssscssssccssssccsccssccsscssssscsssscscssccscssccsscssssscsscsssscssssssssssssssssssssssssssssscsssscssssssssssssssssssssssssscsssssssssssssssscssssscscsssssssssssscscsscsssscssssssssssssssssssssssssssssssssssscsssssssscsscsscsscsscssssssscsscssss" /></g>
<circle
   class="st6"
   cx="42"
   cy="30"
   r="17.5"
   id="circle1358" />
<g
   id="g1362">
	<path
   class="st5"
   d="M41.4,36.18c-0.97,0-1.8-0.12-2.49-0.35c-0.7-0.23-1.26-0.53-1.7-0.9c-0.44-0.37-0.76-0.77-0.98-1.19   s-0.33-0.82-0.34-1.21c0-0.11,0.04-0.21,0.12-0.28c0.08-0.08,0.18-0.11,0.29-0.11h2.47c0.14,0,0.25,0.03,0.34,0.08   s0.17,0.15,0.24,0.27c0.1,0.24,0.25,0.43,0.44,0.58c0.19,0.15,0.43,0.25,0.71,0.31c0.28,0.06,0.58,0.08,0.9,0.08   c0.64,0,1.14-0.15,1.5-0.44c0.36-0.29,0.54-0.7,0.54-1.21c0-0.54-0.17-0.92-0.51-1.16c-0.34-0.23-0.82-0.35-1.45-0.35h-2.09   c-0.14,0-0.25-0.04-0.34-0.13s-0.13-0.2-0.13-0.34v-1.05c0-0.15,0.03-0.28,0.09-0.4c0.06-0.11,0.13-0.19,0.21-0.24l3.09-2.62h-5.23   c-0.12,0-0.23-0.04-0.33-0.13s-0.14-0.2-0.14-0.34v-1.77c0-0.14,0.05-0.25,0.14-0.34c0.09-0.09,0.2-0.13,0.33-0.13h8.66   c0.14,0,0.25,0.04,0.35,0.13c0.09,0.09,0.14,0.2,0.14,0.34v1.6c0,0.14-0.03,0.26-0.09,0.37s-0.13,0.19-0.21,0.25l-2.86,2.65   l0.13,0.04c0.73,0.09,1.37,0.28,1.93,0.56c0.56,0.29,1,0.7,1.33,1.23s0.49,1.21,0.49,2.02c0,0.85-0.24,1.59-0.72,2.21   s-1.14,1.1-1.97,1.44S42.46,36.18,41.4,36.18z"
   id="path1360" />
</g>
</svg>
