<?xml version="1.0" encoding="utf-8"?>
<!-- Generator: Adobe Illustrator 27.4.1, SVG Export Plug-In . SVG Version: 6.00 Build 0)  -->
<svg version="1.1" id="Capa_1" xmlns="http://www.w3.org/2000/svg" xmlns:xlink="http://www.w3.org/1999/xlink" x="0px" y="0px"
	 viewBox="0 0 500 212" style="enable-background:new 0 0 500 212;" xml:space="preserve">
<style type="text/css">
	.st0{fill:#6D3F90;}
	.st1{fill:#00A2C5;}
	.st2{fill:#F7CF0D;}
	.st3{fill:#AEC90B;}
	.st4{fill:#CE5392;}
	.st5{fill:#FFFFFF;}
</style>
<g>
	<g>
		<path class="st0" d="M199.06,58.92v53.11c0,1.38-1.12,2.5-2.5,2.5l0,0c-1.38,0-2.5-1.12-2.5-2.5V58.92c0-1.38,1.12-2.5,2.5-2.5
			l0,0C197.94,56.42,199.06,57.55,199.06,58.92z"/>
		<path class="st1" d="M181.25,64.89v47.14c0,1.38-1.12,2.5-2.5,2.5h0c-1.37,0-2.5-1.12-2.5-2.5V64.89c0-1.37,1.12-2.5,2.5-2.5h0
			C180.12,62.39,181.25,63.52,181.25,64.89z"/>
		<path class="st2" d="M163.43,70.2v41.83c0,1.38-1.12,2.5-2.5,2.5l0,0c-1.38,0-2.5-1.12-2.5-2.5V70.2c0-1.37,1.12-2.5,2.5-2.5l0,0
			C162.31,67.7,163.43,68.83,163.43,70.2z"/>
		<path class="st3" d="M145.62,86.79v25.24c0,1.38-1.12,2.5-2.5,2.5l0,0c-1.38,0-2.5-1.12-2.5-2.5V86.79c0-1.38,1.12-2.5,2.5-2.5
			l0,0C144.5,84.29,145.62,85.41,145.62,86.79z"/>
		<path class="st2" d="M252.5,86.79v25.24c0,1.38-1.12,2.5-2.5,2.5h0c-1.38,0-2.5-1.12-2.5-2.5V86.79c0-1.38,1.12-2.5,2.5-2.5h0
			C251.38,84.29,252.5,85.41,252.5,86.79z"/>
		<path class="st4" d="M216.87,64.89v47.14c0,1.38-1.12,2.5-2.5,2.5h0c-1.38,0-2.5-1.12-2.5-2.5V64.89c0-1.37,1.12-2.5,2.5-2.5h0
			C215.75,62.39,216.87,63.52,216.87,64.89z"/>
		<path class="st3" d="M234.69,72.85v39.17c0,1.38-1.12,2.5-2.5,2.5l0,0c-1.38,0-2.5-1.12-2.5-2.5V72.85c0-1.38,1.12-2.5,2.5-2.5
			l0,0C233.56,70.35,234.69,71.48,234.69,72.85z"/>
		<path class="st4" d="M305.94,58.92v53.11c0,1.38-1.12,2.5-2.5,2.5l0,0c-1.38,0-2.5-1.12-2.5-2.5V58.92c0-1.38,1.12-2.5,2.5-2.5
			l0,0C304.81,56.42,305.94,57.55,305.94,58.92z"/>
		<path class="st0" d="M288.13,64.89v47.14c0,1.38-1.12,2.5-2.5,2.5l0,0c-1.38,0-2.5-1.12-2.5-2.5V64.89c0-1.37,1.12-2.5,2.5-2.5
			l0,0C287,62.39,288.13,63.52,288.13,64.89z"/>
		<path class="st1" d="M270.31,70.2v41.83c0,1.38-1.12,2.5-2.5,2.5h0c-1.38,0-2.5-1.12-2.5-2.5V70.2c0-1.37,1.12-2.5,2.5-2.5h0
			C269.19,67.7,270.31,68.83,270.31,70.2z"/>
		<path class="st1" d="M359.38,86.79v25.24c0,1.38-1.12,2.5-2.5,2.5h0c-1.37,0-2.5-1.12-2.5-2.5V86.79c0-1.38,1.12-2.5,2.5-2.5h0
			C358.25,84.29,359.38,85.41,359.38,86.79z"/>
		<path class="st3" d="M323.75,64.89v47.14c0,1.38-1.12,2.5-2.5,2.5l0,0c-1.38,0-2.5-1.12-2.5-2.5V64.89c0-1.37,1.12-2.5,2.5-2.5
			l0,0C322.63,62.39,323.75,63.52,323.75,64.89z"/>
		<path class="st2" d="M341.57,72.85v39.17c0,1.38-1.12,2.5-2.5,2.5l0,0c-1.38,0-2.5-1.12-2.5-2.5V72.85c0-1.38,1.12-2.5,2.5-2.5
			l0,0C340.44,70.35,341.57,71.48,341.57,72.85z"/>
	</g>
	<g>
		<path class="st5" d="M84.46,158.89l2.89-11.91c0.74-2.98,1.9-2.73,4.3-2.73c3.31,0,3.47,0.08,3.47,5.54v16.29
			c0,2.48-0.5,3.23-1.41,3.23c-1.74,0-1.57-1.9-1.57-2.65v-11.41c0-2.81-1.16-4.22-2.48-4.22c-1.57,0-2.81,1.16-4.22,7.2l-2.15,8.93
			c-0.41,1.74-1.32,2.23-2.32,2.23c-1.08,0-1.98-0.5-2.4-2.07c-0.83-3.06-2.65-11-3.56-13.56c-0.5-1.49-1.65-2.81-2.48-2.81
			c-1.9,0-2.89,1.24-2.89,3.8v11.33c0,1.98-0.25,3.14-1.32,3.14c-0.83,0-1.41-0.08-1.41-3.14v-18.36c0-2.89,0.08-3.47,3.56-3.47
			c3.14,0,3.64,0.33,4.38,3.14c0,0,2.89,12.41,2.89,12.49c0.58,2.15,1.82,3.39,3.14,3.39C82.06,163.28,83.55,162.53,84.46,158.89z"
			/>
		<path class="st5" d="M113.95,159.68l-5.21-0.08c-5.13,0-6.95,0.91-6.95,3.72c0,2.48,2.73,4.88,5.54,4.88
			c1.32,0,2.32-0.17,2.89-0.58l2.15-1.41c0.41-0.25,0.5-0.58,1.32-0.58c2.23,0-0.17,4.22-6.62,4.22c-5.46,0-9.1-3.72-9.1-9.51
			c0-6.12,3.14-10.09,9.1-10.09c7.11,0,8.68,5.79,8.68,7.94C115.77,159.18,115.27,159.68,113.95,159.68z M106.59,159.1h1.41
			c1.98,0,3.89-1.49,3.89-3.14c0-2.07-1.65-4.05-4.63-4.05c-3.14,0-5.04,1.65-5.04,3.8C102.2,157.7,104.1,159.1,106.59,159.1z"/>
		<path class="st5" d="M122.8,167.58c0,1.41-0.66,2.07-1.98,2.07c-1.98,0-2.23-0.66-2.23-4.96v-18.61c0-2.23,0.33-3.39,2.07-3.39
			c1.65,0,2.15,0.91,2.15,2.56V167.58z"/>
		<path class="st5" d="M135.41,169.85c-6.12,0-9.92-3.89-9.92-9.84c0-5.62,3.89-9.76,9.1-9.76c6.95,0,10.83,3.39,10.83,9.84
			C145.42,166.05,141.53,169.85,135.41,169.85z M135.49,168.03c3.31,0,6.62-2.73,6.62-7.86c0-5.79-3.23-8.11-6.7-8.11
			c-3.31,0-6.7,2.73-6.7,7.44C128.71,164.81,131.36,168.03,135.49,168.03z"/>
		<path class="st5" d="M166.09,167.46c0,1.24-0.74,1.82-1.57,1.82c-1.08,0-1.49-0.16-3.06-0.41c-0.99-0.17-0.41-0.17-1.74,0
			c0.17,0-2.32,0.66-2.48,0.66c0.25,0,0.08,0.08-0.66,0.17c-0.33,0.08-0.58,0.08-0.83,0.08c-4.96,0-8.27-3.14-8.27-9.76
			c0-3.22,1.16-9.76,7.77-9.76c1.32,0,3.31,0.5,4.3,0.5c1.32,0,2.07-0.41,2.65-1.49c1.49-3.22-0.17-5.87,2.32-5.87
			c1.32,0,1.57,0.74,1.57,2.07V167.46z M156.83,168.12c1.32,0,5.95-1.08,5.95-8.44c0-4.47-2.48-7.94-5.79-7.78
			c-1.65,0.08-6.12,0.5-6.12,8.19C150.88,164.81,153.03,168.12,156.83,168.12z"/>
		<path class="st5" d="M174.32,166.63c0,1.9-0.58,2.89-1.74,2.89c-1.82,0-2.07-0.5-2.07-4.3v-11.74c0-1.98,0.41-2.85,1.82-2.85
			c1.98,0,1.98,0.79,1.98,4.34V166.63z M172.09,147.56c-0.74,0-1.08-0.54-1.08-0.87c0-0.66,1.32-2.65,3.14-2.65
			c0.91,0,1.08,0.29,1.08,0.7C175.23,145.33,173.58,147.56,172.09,147.56z"/>
		<path class="st5" d="M177.26,164.97c0-3.39,3.06-5.29,6.86-5.79c3.89-0.5,6.04-2.07,6.04-3.8c0-2.48-1.82-4.3-3.97-4.3h-0.66
			c-2.4,0-3.47,2.48-5.29,2.48c-0.5,0-0.99,0.08-0.99-0.58c0-1.65,3.31-2.73,6.29-2.73c8.77,0,8.1,3.23,8.1,11.25v6.04
			c0,1.08-0.5,1.65-1.49,1.65c-0.83,0-2.32-0.58-3.64-0.58c-2.48,0-3.14,1.16-5.79,1.16C179.74,169.77,177.26,167.95,177.26,164.97z
			 M184.54,168.2c3.14,0,5.79-2.32,5.79-5.29c0-1.9-1.49-3.47-3.72-3.47c-2.73,0-6.04,2.31-6.04,4.96
			C180.57,166.54,182.39,168.2,184.54,168.2z"/>
		<path class="st5" d="M202.82,160.71c-4.47-0.74-5.71-2.89-5.71-4.88c0-3.8,3.8-5.79,7.77-5.79c2.98,0,6.29,0.91,6.29,2.23
			c0,0.41-0.33,0.74-1.16,0.74c-1.49,0-2.56-0.99-4.8-0.99c-2.15,0-3.8,1.24-3.8,2.89c0,1.74,1.24,3.06,5.87,4.05
			c3.8,0.83,5.87,1.98,5.87,5.04c0,3.47-3.31,6.04-7.94,6.04c-4.55,0-7.94-1.41-7.94-2.73c0-0.74,0.41-0.91,1.07-0.91
			c1.41,0,3.14,1.65,6.37,1.74c2.81,0,4.3-1.57,4.3-3.39C209.02,162.95,207.36,161.46,202.82,160.71z"/>
		<path class="st5" d="M250.41,167.46c0,1.24-0.74,1.82-1.57,1.82c-1.08,0-1.49-0.16-3.06-0.41c-0.99-0.17-0.41-0.17-1.74,0
			c0.17,0-2.32,0.66-2.48,0.66c0.25,0,0.08,0.08-0.66,0.17c-0.33,0.08-0.58,0.08-0.83,0.08c-4.96,0-8.27-3.14-8.27-9.76
			c0-3.22,1.16-9.76,7.77-9.76c1.32,0,3.31,0.5,4.3,0.5c1.32,0,2.07-0.41,2.65-1.49c1.49-3.22-0.17-5.87,2.32-5.87
			c1.32,0,1.57,0.74,1.57,2.07V167.46z M241.15,168.12c1.32,0,5.95-1.08,5.95-8.44c0-4.47-2.48-7.94-5.79-7.78
			c-1.65,0.08-6.12,0.5-6.12,8.19C235.2,164.81,237.35,168.12,241.15,168.12z"/>
		<path class="st5" d="M269.52,159.68l-5.21-0.08c-5.13,0-6.95,0.91-6.95,3.72c0,2.48,2.73,4.88,5.54,4.88
			c1.32,0,2.32-0.17,2.89-0.58l2.15-1.41c0.41-0.25,0.5-0.58,1.32-0.58c2.23,0-0.17,4.22-6.62,4.22c-5.46,0-9.1-3.72-9.1-9.51
			c0-6.12,3.14-10.09,9.1-10.09c7.11,0,8.68,5.79,8.68,7.94C271.34,159.18,270.84,159.68,269.52,159.68z M262.16,159.1h1.41
			c1.99,0,3.89-1.49,3.89-3.14c0-2.07-1.65-4.05-4.63-4.05c-3.14,0-5.04,1.65-5.04,3.8C257.77,157.7,259.68,159.1,262.16,159.1z"/>
		<path class="st5" d="M294.91,167.58c0,1.41-0.66,2.07-1.99,2.07c-1.98,0-2.23-0.66-2.23-4.96v-18.61c0-2.23,0.33-3.39,2.07-3.39
			c1.65,0,2.15,0.91,2.15,2.56V167.58z"/>
		<path class="st5" d="M297.27,164.97c0-3.39,3.06-5.29,6.86-5.79c3.89-0.5,6.04-2.07,6.04-3.8c0-2.48-1.82-4.3-3.97-4.3h-0.66
			c-2.4,0-3.47,2.48-5.29,2.48c-0.5,0-0.99,0.08-0.99-0.58c0-1.65,3.31-2.73,6.29-2.73c8.77,0,8.1,3.23,8.1,11.25v6.04
			c0,1.08-0.5,1.65-1.49,1.65c-0.83,0-2.32-0.58-3.64-0.58c-2.48,0-3.14,1.16-5.79,1.16C299.75,169.77,297.27,167.95,297.27,164.97z
			 M304.55,168.2c3.14,0,5.79-2.32,5.79-5.29c0-1.9-1.49-3.47-3.72-3.47c-2.73,0-6.04,2.31-6.04,4.96
			C300.58,166.54,302.4,168.2,304.55,168.2z"/>
		<path class="st5" d="M351.44,158.89l2.9-11.91c0.74-2.98,1.9-2.73,4.3-2.73c3.31,0,3.47,0.08,3.47,5.54v16.29
			c0,2.48-0.5,3.23-1.41,3.23c-1.74,0-1.57-1.9-1.57-2.65v-11.41c0-2.81-1.16-4.22-2.48-4.22c-1.57,0-2.81,1.16-4.22,7.2l-2.15,8.93
			c-0.41,1.74-1.32,2.23-2.32,2.23c-1.08,0-1.99-0.5-2.4-2.07c-0.83-3.06-2.65-11-3.56-13.56c-0.5-1.49-1.65-2.81-2.48-2.81
			c-1.9,0-2.89,1.24-2.89,3.8v11.33c0,1.98-0.25,3.14-1.32,3.14c-0.83,0-1.41-0.08-1.41-3.14v-18.36c0-2.89,0.08-3.47,3.56-3.47
			c3.14,0,3.64,0.33,4.38,3.14c0,0,2.89,12.41,2.89,12.49c0.58,2.15,1.82,3.39,3.14,3.39C349.04,163.28,350.53,162.53,351.44,158.89
			z"/>
		<path class="st5" d="M380.93,159.68l-5.21-0.08c-5.13,0-6.95,0.91-6.95,3.72c0,2.48,2.73,4.88,5.54,4.88
			c1.32,0,2.32-0.17,2.89-0.58l2.15-1.41c0.41-0.25,0.5-0.58,1.32-0.58c2.23,0-0.17,4.22-6.62,4.22c-5.46,0-9.1-3.72-9.1-9.51
			c0-6.12,3.14-10.09,9.1-10.09c7.11,0,8.68,5.79,8.68,7.94C382.75,159.18,382.25,159.68,380.93,159.68z M373.57,159.1h1.41
			c1.99,0,3.89-1.49,3.89-3.14c0-2.07-1.65-4.05-4.63-4.05c-3.14,0-5.04,1.65-5.04,3.8C369.18,157.7,371.08,159.1,373.57,159.1z"/>
		<path class="st5" d="M401.44,156.08v11.16c0,1.65-0.74,1.82-1.32,1.82c-0.83,0-1.32-0.33-1.32-1.49l-0.08-7.61
			c0-6.2-2.56-7.53-5.04-7.53c-3.23,0-5.21,2.81-5.21,6.87v8.27c0,0.66-0.33,1.49-1.41,1.49c-0.91,0-1.24-0.41-1.24-1.74v-14.55
			c0-1.08,0.66-1.57,1.57-1.57c1.32,0,2.81,0.33,4.47,0.33c1.08,0,2.4-0.91,4.88-0.91C400.78,150.62,401.44,153.35,401.44,156.08z"
			/>
		<path class="st5" d="M406.07,148.76c0.17-0.17,0.08-0.08,0.58-2.48c0.25-1.16,1.24-1.41,1.9-1.41c0.83,0,1.49,0.25,1.74,1.57
			c0.17,0.91,0.08,1.16,0.91,2.98c0.5,1.07,2.15,1.32,2.15,2.23c0,1.08-0.91,0.58-2.32,2.73c-0.41,0.66-0.74,2.4-0.74,4.05v3.97
			c0,1.07,0.25,3.47,1.65,4.46c0.66,0.5,1.9,1.32,1.9,2.07c0,0.99-0.66,1.49-1.9,1.49c-3.56,0-5.38-1.74-5.38-5.54v-7.2
			c0-1.98-0.33-2.73-1.16-4.05c-0.41-0.74-1.32-1.07-1.32-1.98C404.08,150.91,405.57,149.84,406.07,148.76z"/>
		<path class="st5" d="M431.92,159.68l-5.21-0.08c-5.13,0-6.95,0.91-6.95,3.72c0,2.48,2.73,4.88,5.54,4.88
			c1.32,0,2.32-0.17,2.89-0.58l2.15-1.41c0.41-0.25,0.5-0.58,1.32-0.58c2.23,0-0.17,4.22-6.62,4.22c-5.46,0-9.1-3.72-9.1-9.51
			c0-6.12,3.14-10.09,9.1-10.09c7.11,0,8.68,5.79,8.68,7.94C433.73,159.18,433.24,159.68,431.92,159.68z M424.55,159.1h1.41
			c1.99,0,3.89-1.49,3.89-3.14c0-2.07-1.65-4.05-4.63-4.05c-3.14,0-5.04,1.65-5.04,3.8C420.17,157.7,422.07,159.1,424.55,159.1z"/>
	</g>
</g>
</svg>
